<svg width="53" height="53" viewBox="0 0 53 53" fill="none" xmlns="http://www.w3.org/2000/svg">
<path d="M46.3543 45.3709C45.609 42.0791 41.3545 40.4746 39.8846 39.957C38.2697 39.3877 35.9717 39.2531 34.4914 38.9219C33.6426 38.7355 32.4107 38.2697 31.9967 37.7729C31.5826 37.276 31.831 32.6695 31.831 32.6695C31.831 32.6695 32.5971 31.4791 33.0111 30.4232C33.4252 29.3777 33.8807 26.5 33.8807 26.5C33.8807 26.5 34.7295 26.5 35.0297 25.0094C35.3506 23.3842 35.8578 22.7527 35.7957 21.5416C35.7336 20.3512 35.0814 20.3822 35.0814 20.3822C35.0814 20.3822 35.7129 18.6535 35.7853 15.0719C35.8785 10.8174 32.5453 6.625 26.5103 6.625C20.3926 6.625 17.1318 10.8174 17.225 15.0719C17.3078 18.6535 17.9185 20.3822 17.9185 20.3822C17.9185 20.3822 17.2664 20.3512 17.2043 21.5416C17.1422 22.7527 17.6494 23.3842 17.9703 25.0094C18.2601 26.5 19.1193 26.5 19.1193 26.5C19.1193 26.5 19.5748 29.3777 19.9889 30.4232C20.4029 31.4791 21.1689 32.6695 21.1689 32.6695C21.1689 32.6695 21.4174 37.276 21.0033 37.7729C20.5892 38.2697 19.3574 38.7355 18.5086 38.9219C17.0283 39.2531 14.7303 39.3877 13.1154 39.957C11.6455 40.4746 7.39101 42.0791 6.64569 45.3709C6.53183 45.8885 6.92519 46.375 7.46347 46.375H45.5469C46.0748 46.375 46.4682 45.8885 46.3543 45.3709Z" fill="white"/>
</svg>
